{"title":"Kosem Soultan dvd-17 greek subs","uid":14662525,"size":2174340454,"categoryP":"video","categoryS":"tv_shows","magnet":"?xt=urn:btih:1b5eedd37d91755744e9db1175f2aae01f2a80a4&amp;dn=Kosem+Soultan+dvd-17+greek+subs&amp;tr=udp%3A%2F%2Ftracker.leechers-paradise.org%3A6969&amp;tr=udp%3A%2F%2Fzer0day.ch%3A1337&amp;tr=udp%3A%2F%2Fopen.demonii.com%3A1337&amp;tr=udp%3A%2F%2Ftracker.coppersurfer.tk%3A6969&amp;tr=udp%3A%2F%2Fexodus.desync.com%3A6969","seeders":4,"leechers":0,"uploader":"giakanima","files":1,"time":1463776968,"description":"General\r\nComplete name                            : Kosem Soultan dvd-17 greek subs.avi\r\nFormat                                   : AVI\r\nFormat/Info                              : Audio Video Interleave\r\nFormat profile                           : OpenDML\r\nFile size                                : 2.03 GiB\r\nDuration                                 : 1h 33mn\r\nOverall bit rate                         : 3 113 Kbps\r\nMovie name                               : 5357.Title2\r\nWriting application                      : Lavf56.9.100\r\nOriginal source form/Name                : 5357\r\n\r\nVideo\r\nID                                       : 0\r\nFormat                                   : MPEG-4 Visual\r\nFormat profile                           : Advanced   \r\nFormat settings, BVOP                    : 2\r\nFormat settings, QPel                    : No\r\nFormat settings, GMC                     : No warppoints\r\nFormat settings, Matrix                  : Default (MPEG)\r\nMuxing mode                              : Packed bitstream\r\nCodec ID                                 : XVID\r\nCodec ID/Hint                            : XviD\r\nDuration                                 : 1h 33mn\r\nBit rate                                 : 2 911 Kbps\r\nWidth                                    : 1 024 pixels\r\nHeight                                   : 576 pixels\r\nDisplay aspect ratio                     : 16:9\r\nFrame rate                               : 25.000 fps\r\nColor space                              : YUV\r\nChroma subsampling                       : 4:2:0\r\nBit depth                                : 8 bits\r\nScan type                                : Progressive\r\nCompression mode                         : Lossy\r\nBits/(Pixel*Frame)                       : 0.197\r\nStream size                              : 1.89 GiB (93%)\r\nWriting library                          : XviD 64\r\n\r\nAudio\r\nID                                       : 1\r\nFormat                                   : AC-3\r\nFormat/Info                              : Audio Coding 3\r\nMode extension                           : CM (complete main)\r\nFormat settings, Endianness              : Big\r\nCodec ID                                 : 2000\r\nDuration                                 : 1h 33mn\r\nBit rate mode                            : Constant\r\nBit rate                                 : 192 Kbps\r\nChannel(s)                               : 2 channels\r\nChannel positions                        : Front: L R\r\nSampling rate                            : 48.0 KHz\r\nFrame rate                               : 31.250 fps (1536 spf)\r\nCompression mode                         : Lossy\r\nStream size                              : 128 MiB (6%)\r\nAlignment                                : Aligned on interleaves\r\nInterleave, duration                     : 32 ms (0.80 video frame)","torrent":{"xt":"urn:btih:1b5eedd37d91755744e9db1175f2aae01f2a80a4","amp;dn":"Kosem+Soultan+dvd-17+greek+subs","amp;tr":["udp%3A%2F%2Ftracker.leechers-paradise.org%3A6969","udp%3A%2F%2Fzer0day.ch%3A1337","udp%3A%2F%2Fopen.demonii.com%3A1337","udp%3A%2F%2Ftracker.coppersurfer.tk%3A6969","udp%3A%2F%2Fexodus.desync.com%3A6969"],"infoHash":"1b5eedd37d91755744e9db1175f2aae01f2a80a4","infoHashBuffer":{"type":"Buffer","data":[27,94,237,211,125,145,117,87,68,233,219,17,117,242,170,224,31,42,128,164]},"announce":[],"urlList":[]}}